<svg width="800" height="400" viewBox="0 0 800 400" xmlns="http://www.w3.org/2000/svg"><defs><pattern id="satori_pattern_id_1" x="0" y="0" width="0.075" height="0.15" patternUnits="objectBoundingBox"><radialGradient id="satori_radial_id_1"><stop offset="0" stop-color="#BB8888"/><stop offset="0.02" stop-color="lightgray"/><stop offset="0" stop-color="transparent"/><stop offset="1" stop-color="transparent"/></radialGradient><mask id="satori_mask_id_1"><rect x="0" y="0" width="60" height="60" fill="#fff"/></mask><circle cx="45" cy="45" width="60" height="60" r="63.63961030678928" fill="url(#satori_radial_id_1)" mask="url(#satori_mask_id_1)"/></pattern><pattern id="satori_pattern_id_0" x="0" y="0" width="0.075" height="0.15" patternUnits="objectBoundingBox"><radialGradient id="satori_radial_id_0"><stop offset="0" stop-color="#BB8888"/><stop offset="0.02" stop-color="lightgray"/><stop offset="0" stop-color="transparent"/><stop offset="1" stop-color="transparent"/></radialGradient><mask id="satori_mask_id_0"><rect x="0" y="0" width="60" height="60" fill="#fff"/></mask><circle cx="15" cy="15" width="60" height="60" r="63.63961030678928" fill="url(#satori_radial_id_0)" mask="url(#satori_mask_id_0)"/></pattern></defs><path x="0" y="0" width="800" height="400" fill="#F9F9F9" d="M6,0 h788 a6,6 0 0 1 6,6 v388 a6,6 0 0 1 -6,6 h-788 a6,6 0 0 1 -6,-6 v-388 a6,6 0 0 1 6,-6"/><path x="0" y="0" width="800" height="400" fill="url(#satori_pattern_id_1)" d="M6,0 h788 a6,6 0 0 1 6,6 v388 a6,6 0 0 1 -6,6 h-788 a6,6 0 0 1 -6,-6 v-388 a6,6 0 0 1 6,-6"/><path x="0" y="0" width="800" height="400" fill="url(#satori_pattern_id_0)" d="M6,0 h788 a6,6 0 0 1 6,6 v388 a6,6 0 0 1 -6,6 h-788 a6,6 0 0 1 -6,-6 v-388 a6,6 0 0 1 6,-6"/><defs><clipPath id="satori_bc-id-0"><rect x="271" y="145" width="258" height="47"/></clipPath></defs><path width="258" height="47" clip-path="url(#satori_bc-id-0)" fill="none" stroke="#E8E8E8" stroke-width="4" d="M529,192 A0,0 0 0 1 529,192 h-258 A0,0 0 0 1 271,192"/><path fill="#884444" d="M282.4 168.3L282.4 168.3L282.4 185.3L274.3 185.3L274.3 155.8L282.0 155.8L282.0 161.0L282.4 161.0Q283.4 158.5 285.7 157.0Q288.0 155.5 291.3 155.5L291.3 155.5Q294.3 155.5 296.6 156.8Q298.9 158.1 300.1 160.6Q301.4 163.1 301.4 166.5L301.4 166.5L301.4 185.3L293.2 185.3L293.2 168.0Q293.3 165.3 291.9 163.8Q290.5 162.2 288.0 162.2L288.0 162.2Q286.4 162.2 285.1 163.0Q283.8 163.7 283.1 165.0Q282.4 166.4 282.4 168.3Z "/><path fill="#BB8888" d="M322.5 185.9L322.5 185.9Q318.2 185.9 315.2 184.0Q312.1 182.1 310.4 178.7Q308.8 175.3 308.8 170.8L308.8 170.8Q308.8 166.3 310.4 162.8Q312.1 159.3 315.1 157.4Q318.0 155.5 322.0 155.5L322.0 155.5Q324.3 155.5 326.6 156.2Q328.8 157.0 330.7 158.7Q332.5 160.4 333.6 163.2Q334.7 166.1 334.7 170.2L334.7 170.2L334.7 172.1L312.0 172.1L312.0 168.2L330.1 168.2Q330.1 165.7 329.1 163.7Q328.1 161.8 326.3 160.6Q324.5 159.5 322.0 159.5L322.0 159.5Q319.3 159.5 317.4 160.9Q315.4 162.2 314.3 164.3Q313.3 166.4 313.3 168.9L313.3 168.9L313.3 171.5Q313.3 174.8 314.4 177.1Q315.6 179.4 317.7 180.6Q319.7 181.8 322.5 181.8L322.5 181.8Q324.3 181.8 325.7 181.3Q327.2 180.8 328.2 179.8Q329.3 178.8 329.9 177.2L329.9 177.2L334.2 178.5Q333.5 180.7 331.9 182.4Q330.3 184.0 327.9 185.0Q325.5 185.9 322.5 185.9ZM354.7 185.3L350.3 185.3L341.3 155.8L346.0 155.8L352.4 178.4L352.7 178.4L359.0 155.8L363.8 155.8L370.1 178.3L370.4 178.3L376.7 155.8L381.5 155.8L372.5 185.3L368.1 185.3L361.6 162.7L361.2 162.7L354.7 185.3Z "/><path fill="#884444" d="M401.4 171.4L387.1 146.0L396.4 146.0L405.4 162.9L405.8 162.9L414.7 146.0L424.0 146.0L409.7 171.4L409.7 185.3L401.4 185.3L401.4 171.4ZM437.7 185.9L437.7 185.9Q433.1 185.9 429.9 184.0Q426.6 182.2 424.8 178.8Q423.1 175.4 423.1 170.7L423.1 170.7Q423.1 166.2 424.8 162.7Q426.6 159.3 429.8 157.4Q433.0 155.5 437.4 155.5L437.4 155.5Q440.3 155.5 442.8 156.4Q445.3 157.3 447.2 159.2Q449.1 161.0 450.1 163.8Q451.2 166.7 451.2 170.4L451.2 170.4L451.2 172.7L426.3 172.7L426.3 167.6L443.5 167.6Q443.5 165.8 442.7 164.5Q442.0 163.1 440.6 162.3Q439.3 161.6 437.5 161.6L437.5 161.6Q435.6 161.6 434.2 162.4Q432.8 163.3 432.0 164.7Q431.2 166.1 431.1 167.9L431.1 167.9L431.1 172.7Q431.1 174.9 432.0 176.5Q432.8 178.0 434.3 178.9Q435.8 179.8 437.8 179.8L437.8 179.8Q439.2 179.8 440.3 179.4Q441.4 179.0 442.2 178.2Q443.1 177.5 443.5 176.4L443.5 176.4L451.0 176.9Q450.5 179.6 448.7 181.6Q446.9 183.6 444.1 184.7Q441.3 185.9 437.7 185.9ZM466.9 185.8L466.9 185.8Q464.1 185.8 461.9 184.9Q459.7 183.9 458.4 181.9Q457.2 180.0 457.2 177.1L457.2 177.1Q457.2 174.6 458.1 172.9Q459.0 171.3 460.5 170.3Q462.1 169.2 464.0 168.7Q466.0 168.2 468.2 168.0L468.2 168.0Q470.8 167.7 472.4 167.5Q473.9 167.2 474.6 166.8Q475.4 166.3 475.4 165.3L475.4 165.3L475.4 165.2Q475.4 163.4 474.2 162.4Q473.1 161.4 471.0 161.4L471.0 161.4Q468.8 161.4 467.5 162.4Q466.2 163.4 465.7 164.8L465.7 164.8L458.2 164.2Q458.8 161.5 460.5 159.5Q462.1 157.6 464.8 156.5Q467.5 155.5 471.0 155.5L471.0 155.5Q473.5 155.5 475.7 156.0Q478.0 156.6 479.7 157.8Q481.5 159.0 482.5 160.9Q483.5 162.8 483.5 165.4L483.5 165.4L483.5 185.3L475.8 185.3L475.8 181.2L475.5 181.2Q474.8 182.6 473.6 183.6Q472.5 184.7 470.8 185.3Q469.1 185.8 466.9 185.8ZM469.3 180.2L469.3 180.2Q471.1 180.2 472.5 179.5Q473.8 178.8 474.6 177.5Q475.4 176.3 475.4 174.8L475.4 174.8L475.4 171.6Q475.0 171.9 474.4 172.1Q473.7 172.3 472.9 172.5Q472.1 172.6 471.2 172.7Q470.4 172.9 469.7 173.0L469.7 173.0Q468.3 173.2 467.2 173.6Q466.1 174.1 465.6 174.9Q465.0 175.6 465.0 176.8L465.0 176.8Q465.0 178.5 466.2 179.3Q467.4 180.2 469.3 180.2ZM500.0 185.3L491.9 185.3L491.9 155.8L499.8 155.8L499.8 161.0L500.1 161.0Q500.9 158.2 502.8 156.8Q504.7 155.4 507.2 155.4L507.2 155.4Q507.8 155.4 508.5 155.5Q509.2 155.6 509.7 155.7L509.7 155.7L509.7 163.0Q509.2 162.8 508.1 162.6Q507.1 162.5 506.3 162.5L506.3 162.5Q504.5 162.5 503.1 163.3Q501.7 164.1 500.9 165.4Q500.0 166.8 500.0 168.6L500.0 168.6L500.0 185.3Z "/><path fill="#BB8888" d="M519.4 185.6L519.4 185.6Q518.0 185.6 517.0 184.6Q516.0 183.6 516.0 182.1L516.0 182.1Q516.0 180.7 517.0 179.7Q518.0 178.7 519.4 178.7L519.4 178.7Q520.9 178.7 521.9 179.7Q522.9 180.7 522.9 182.1L522.9 182.1Q522.9 183.1 522.4 183.9Q522.0 184.7 521.2 185.1Q520.4 185.6 519.4 185.6Z "/><path fill="#DDAAAA" d="M346.6 205.7L346.6 205.7L346.6 211.0L345.2 211.0L345.2 202.2L346.5 202.2L346.5 203.6L346.6 203.6Q346.9 202.9 347.6 202.5Q348.2 202.1 349.2 202.1L349.2 202.1Q350.1 202.1 350.7 202.5Q351.4 202.9 351.8 203.6Q352.1 204.3 352.1 205.4L352.1 205.4L352.1 211.0L350.8 211.0L350.8 205.5Q350.8 204.5 350.3 203.9Q349.7 203.3 348.8 203.3L348.8 203.3Q348.2 203.3 347.7 203.6Q347.1 203.9 346.9 204.4Q346.6 205.0 346.6 205.7ZM362.8 206.2L358.6 199.3L360.2 199.3L363.4 204.8L363.6 204.8L366.8 199.3L368.4 199.3L364.2 206.2L364.2 211.0L362.8 211.0L362.8 206.2ZM378.5 211.2L378.5 211.2Q377.2 211.2 376.3 210.6Q375.4 210.0 374.9 209.0Q374.4 208.0 374.4 206.7L374.4 206.7Q374.4 205.3 374.9 204.3Q375.4 203.3 376.3 202.7Q377.2 202.1 378.3 202.1L378.3 202.1Q379.0 202.1 379.7 202.4Q380.4 202.6 380.9 203.1Q381.4 203.6 381.8 204.4Q382.1 205.3 382.1 206.5L382.1 206.5L382.1 207.1L375.4 207.1L375.4 205.9L380.7 205.9Q380.7 205.2 380.4 204.6Q380.1 204.0 379.6 203.7Q379.1 203.3 378.3 203.3L378.3 203.3Q377.5 203.3 377.0 203.7Q376.4 204.1 376.1 204.8Q375.8 205.4 375.8 206.1L375.8 206.1L375.8 206.9Q375.8 207.9 376.1 208.6Q376.4 209.2 377.1 209.6Q377.7 210.0 378.5 210.0L378.5 210.0Q379.0 210.0 379.4 209.8Q379.9 209.7 380.2 209.3Q380.5 209.0 380.7 208.6L380.7 208.6L382.0 209.0Q381.8 209.6 381.3 210.1Q380.8 210.6 380.1 210.9Q379.4 211.2 378.5 211.2ZM392.7 211.2L392.7 211.2Q391.9 211.2 391.2 210.9Q390.5 210.5 390.1 210.0Q389.7 209.4 389.7 208.5L389.7 208.5Q389.7 207.7 390.0 207.3Q390.3 206.8 390.8 206.5Q391.3 206.3 391.9 206.1Q392.5 206.0 393.1 205.9L393.1 205.9Q393.9 205.8 394.4 205.8Q394.9 205.7 395.1 205.6Q395.4 205.5 395.4 205.1L395.4 205.1L395.4 205.1Q395.4 204.2 394.9 203.8Q394.4 203.3 393.5 203.3L393.5 203.3Q392.6 203.3 392.0 203.7Q391.5 204.2 391.2 204.6L391.2 204.6L390.0 204.2Q390.3 203.4 390.9 202.9Q391.5 202.5 392.1 202.3Q392.8 202.1 393.5 202.1L393.5 202.1Q393.9 202.1 394.4 202.2Q395.0 202.3 395.5 202.6Q396.0 202.9 396.4 203.6Q396.7 204.2 396.7 205.2L396.7 205.2L396.7 211.0L395.4 211.0L395.4 209.8L395.3 209.8Q395.2 210.1 394.8 210.4Q394.5 210.7 394.0 211.0Q393.5 211.2 392.7 211.2ZM392.9 210.0L392.9 210.0Q393.7 210.0 394.3 209.7Q394.8 209.4 395.1 208.9Q395.4 208.4 395.4 207.8L395.4 207.8L395.4 206.6Q395.3 206.7 395.0 206.8Q394.7 206.9 394.3 206.9Q394.0 207.0 393.6 207.0Q393.3 207.1 393.0 207.1L393.0 207.1Q392.5 207.2 392.1 207.3Q391.6 207.5 391.3 207.8Q391.1 208.1 391.1 208.6L391.1 208.6Q391.1 209.3 391.6 209.6Q392.1 210.0 392.9 210.0ZM406.5 211.0L405.2 211.0L405.2 202.2L406.5 202.2L406.5 203.6L406.5 203.6Q406.8 202.9 407.4 202.5Q408.0 202.1 408.8 202.1L408.8 202.1Q409.0 202.1 409.2 202.1Q409.4 202.1 409.5 202.1L409.5 202.1L409.5 203.5Q409.5 203.5 409.2 203.4Q409.0 203.4 408.7 203.4L408.7 203.4Q408.1 203.4 407.6 203.7Q407.1 203.9 406.8 204.4Q406.5 204.9 406.5 205.5L406.5 205.5L406.5 211.0ZM417.1 211.1L417.1 211.1Q416.7 211.1 416.4 210.8Q416.1 210.5 416.1 210.0L416.1 210.0Q416.1 209.6 416.4 209.3Q416.7 209.0 417.1 209.0L417.1 209.0Q417.5 209.0 417.8 209.3Q418.1 209.6 418.1 210.0L418.1 210.0Q418.1 210.3 418.0 210.6Q417.8 210.8 417.6 210.9Q417.4 211.1 417.1 211.1ZM430.0 214.4L430.0 214.4Q429.1 214.4 428.4 214.2Q427.7 213.9 427.2 213.5Q426.7 213.1 426.5 212.7L426.5 212.7L427.5 211.9Q427.7 212.2 428.0 212.5Q428.3 212.8 428.8 213.0Q429.3 213.2 430.0 213.2L430.0 213.2Q431.1 213.2 431.8 212.7Q432.5 212.2 432.5 211.1L432.5 211.1L432.5 209.4L432.4 209.4Q432.2 209.6 431.9 210.0Q431.7 210.3 431.2 210.6Q430.7 210.8 429.8 210.8L429.8 210.8Q428.8 210.8 427.9 210.3Q427.1 209.8 426.6 208.9Q426.1 207.9 426.1 206.6L426.1 206.6Q426.1 205.2 426.6 204.2Q427.1 203.2 427.9 202.7Q428.7 202.1 429.8 202.1L429.8 202.1Q430.7 202.1 431.2 202.4Q431.7 202.7 432.0 203.1Q432.2 203.4 432.4 203.6L432.4 203.6L432.5 203.6L432.5 202.2L433.8 202.2L433.8 211.2Q433.8 212.4 433.3 213.1Q432.8 213.8 431.9 214.1Q431.1 214.4 430.0 214.4ZM430.0 209.6L430.0 209.6Q430.8 209.6 431.4 209.3Q431.9 208.9 432.2 208.2Q432.5 207.5 432.5 206.5L432.5 206.5Q432.5 205.6 432.2 204.9Q431.9 204.2 431.4 203.7Q430.8 203.3 430.0 203.3L430.0 203.3Q429.1 203.3 428.6 203.8Q428.0 204.2 427.7 204.9Q427.5 205.7 427.5 206.5L427.5 206.5Q427.5 207.5 427.7 208.1Q428.0 208.8 428.6 209.2Q429.2 209.6 430.0 209.6ZM444.8 211.2L444.8 211.2Q444.0 211.2 443.3 210.9Q442.7 210.5 442.3 210.0Q441.9 209.4 441.9 208.5L441.9 208.5Q441.9 207.7 442.2 207.3Q442.5 206.8 442.9 206.5Q443.4 206.3 444.0 206.1Q444.6 206.0 445.2 205.9L445.2 205.9Q446.0 205.8 446.5 205.8Q447.0 205.7 447.3 205.6Q447.5 205.5 447.5 205.1L447.5 205.1L447.5 205.1Q447.5 204.2 447.0 203.8Q446.6 203.3 445.7 203.3L445.7 203.3Q444.7 203.3 444.2 203.7Q443.6 204.2 443.4 204.6L443.4 204.6L442.1 204.2Q442.5 203.4 443.0 202.9Q443.6 202.5 444.3 202.3Q445.0 202.1 445.6 202.1L445.6 202.1Q446.0 202.1 446.6 202.2Q447.1 202.3 447.6 202.6Q448.2 202.9 448.5 203.6Q448.8 204.2 448.8 205.2L448.8 205.2L448.8 211.0L447.5 211.0L447.5 209.8L447.4 209.8Q447.3 210.1 447.0 210.4Q446.7 210.7 446.1 211.0Q445.6 211.2 444.8 211.2ZM445.0 210.0L445.0 210.0Q445.8 210.0 446.4 209.7Q446.9 209.4 447.2 208.9Q447.5 208.4 447.5 207.8L447.5 207.8L447.5 206.6Q447.4 206.7 447.1 206.8Q446.8 206.9 446.5 206.9Q446.1 207.0 445.7 207.0Q445.4 207.1 445.2 207.1L445.2 207.1Q444.7 207.2 444.2 207.3Q443.8 207.5 443.5 207.8Q443.2 208.1 443.2 208.6L443.2 208.6Q443.2 209.3 443.7 209.6Q444.2 210.0 445.0 210.0Z "/><path fill="#666666" d="M295.4 237.6L298.2 237.6L298.2 240.5L295.4 240.5ZM297.5 244.7L299.7 244.7L299.7 243.7L297.5 243.7L297.5 241.5L299.3 241.5L299.3 236.6L294.4 236.6L294.4 241.5L296.5 241.5L296.5 248.0L295.4 248.2L295.4 243.0L294.4 243.0L294.4 248.4L293.7 248.6L293.9 249.7C295.6 249.3 297.9 248.7 300.0 248.1L299.9 247.1C299.1 247.3 298.3 247.5 297.5 247.7ZM300.1 244.4L301.7 244.4C301.5 245.3 301.1 246.4 300.8 247.2L301.9 247.3C302.0 247.1 302.1 246.9 302.2 246.6L305.9 246.6C305.7 248.3 305.4 249.1 305.2 249.4C305.0 249.5 304.8 249.5 304.6 249.5C304.2 249.5 303.5 249.5 302.7 249.4C302.9 249.7 303.0 250.2 303 250.5C303.8 250.5 304.6 250.5 305.0 250.5C305.5 250.5 305.8 250.4 306.1 250.1C306.6 249.7 306.8 248.6 307.1 246.1C307.2 245.9 307.2 245.6 307.2 245.6L302.5 245.6C302.6 245.2 302.8 244.8 302.9 244.4L307.9 244.4L307.9 243.4L300.1 243.4ZM302.0 241.1C302.6 240.3 303.1 239.5 303.4 238.7L304.5 238.7C304.8 239.6 305.3 240.4 305.9 241.1ZM308.3 238.7L308.3 237.7L303.8 237.7C304.0 237.1 304.2 236.6 304.3 236.0L303.1 235.9C303.0 236.5 302.9 237.1 302.6 237.7L299.7 237.7L299.7 238.7L302.2 238.7C301.5 240.0 300.5 241.2 299.1 242.1C299.3 242.3 299.7 242.7 299.8 242.9C300.6 242.4 301.3 241.8 301.9 241.2L301.9 242.1L306.0 242.1L306.0 241.2C306.5 241.8 307.1 242.4 307.7 242.8C307.9 242.5 308.3 242.1 308.5 241.9C307.4 241.2 306.3 240.0 305.6 238.7ZM314.1 245.7L314.1 242.5L317.7 242.5L317.7 245.7ZM324.7 245.7L318.9 245.7L318.9 242.5L323.6 242.5L323.6 241.4L318.9 241.4L318.9 239.0L324.0 239.0L324.0 237.8L314.4 237.8C314.7 237.3 314.9 236.7 315.2 236.2L314.0 235.9C313.2 238.0 311.9 240.1 310.4 241.4C310.7 241.6 311.2 242.0 311.4 242.1C312.3 241.3 313.1 240.2 313.8 239.0L317.7 239.0L317.7 241.4L312.9 241.4L312.9 245.7L310.3 245.7L310.3 246.9L317.7 246.9L317.7 250.5L318.9 250.5L318.9 246.9L324.7 246.9ZM338.0 242.0L332.0 242.0L332.0 240.7L338.0 240.7ZM338.0 244.1L332.0 244.1L332.0 242.8L338.0 242.8ZM338.0 246.3L332.0 246.3L332.0 245.0L338.0 245.0ZM330.8 239.8L330.8 247.2L339.2 247.2L339.2 239.8L334.4 239.8C334.5 239.4 334.6 238.9 334.7 238.5L341.0 238.5L341.0 237.4L334.8 237.4C334.9 236.9 334.9 236.4 335.0 236.0L333.6 235.9C333.6 236.3 333.6 236.8 333.5 237.4L327.1 237.4L327.1 238.5L333.4 238.5C333.4 238.9 333.3 239.4 333.2 239.8ZM341.2 248.6L329.0 248.6L329.0 240.2L327.9 240.2L327.9 250.5L329.0 250.5L329.0 249.7L341.2 249.7ZM347.8 242.6L346.3 243.1L346.3 240.2L348.0 240.2L348.0 239.1L346.3 239.1L346.3 235.9L345.2 235.9L345.2 239.1L343.2 239.1L343.2 240.2L345.2 240.2L345.2 243.5C344.4 243.8 343.6 244.1 343.0 244.3L343.3 245.4C343.9 245.2 344.5 245.0 345.2 244.7L345.2 249.1C345.2 249.4 345.1 249.4 344.9 249.4C344.8 249.4 344.1 249.4 343.4 249.4C343.6 249.8 343.7 250.2 343.8 250.5C344.8 250.5 345.4 250.5 345.8 250.3C346.2 250.1 346.3 249.8 346.3 249.1L346.3 244.3C346.9 244.1 347.5 243.8 348.0 243.6ZM349.3 238.2C349.6 238.8 350.0 239.6 350.2 240.1L351.2 239.7C351.0 239.2 350.6 238.5 350.3 237.9ZM353.3 248.9L353.3 247.5L355.7 247.5L355.7 248.9ZM350.1 247.5L352.2 247.5L352.2 248.9L350.1 248.9ZM352.2 245.3L352.2 246.6L350.1 246.6L350.1 245.3ZM355.7 246.6L353.3 246.6L353.3 245.3L355.7 245.3ZM357.6 241.1L357.6 240.1L355.3 240.1C355.7 239.4 356.1 238.6 356.4 237.9L355.4 237.6C355.2 238.3 354.6 239.4 354.2 240.1L353.3 240.1L353.3 237.5C354.7 237.3 355.9 237.1 356.9 236.9L356.2 236.0C354.4 236.5 351.0 236.8 348.3 236.9C348.4 237.2 348.5 237.6 348.5 237.8C349.7 237.8 351.0 237.7 352.2 237.6L352.2 240.1L348.1 240.1L348.1 241.1L351.3 241.1C350.3 242.3 348.8 243.4 347.4 244.0C347.6 244.2 347.9 244.6 348.1 244.8C349.6 244.1 351.2 242.8 352.2 241.4L352.2 244.0L353.3 244.0L353.3 241.3C354.2 242.5 355.5 243.6 356.8 244.4L349.0 244.4L349.0 250.5L350.1 250.5L350.1 249.8L355.7 249.8L355.7 250.4L356.8 250.4L356.8 244.4C356.9 244.5 357.1 244.6 357.3 244.7C357.5 244.4 357.8 244.0 358.1 243.8C356.7 243.2 355.3 242.2 354.3 241.1ZM368.5 238.0C368.1 239.4 367.1 240.2 364.5 240.7C364.7 240.9 365.0 241.3 365.1 241.5C367.4 241.1 368.5 240.3 369.2 239.2C369.8 240.3 370.9 241.3 373.6 241.8C373.8 241.5 374.0 241.1 374.2 240.8C371.0 240.4 370.1 239.2 369.7 238.0L372.3 238.0C372.0 238.4 371.6 238.9 371.3 239.2L372.2 239.5C372.8 239.0 373.4 238.1 373.9 237.3L373.1 237.0L372.9 237.1L367.4 237.1C367.6 236.7 367.8 236.4 367.9 236.1L366.9 235.9C366.5 236.9 365.7 237.9 364.5 238.8C364.7 238.9 365.1 239.1 365.4 239.4C365.9 238.9 366.4 238.5 366.8 238.0ZM363.1 246.1L371.1 246.1L371.1 247.2L363.1 247.2ZM363.1 244.2L371.1 244.2L371.1 245.3L363.1 245.3ZM363.1 242.4L371.1 242.4L371.1 243.4L363.1 243.4ZM361.9 248.0L372.3 248.0L372.3 241.6L361.9 241.6ZM364.5 237.5C363.7 237.1 362.2 236.6 361.1 236.3L360.6 237.1C361.7 237.4 363.2 238.0 363.9 238.4ZM364.3 239.2C362.6 239.7 361.0 240.2 359.8 240.4L360.3 241.5C361.5 241.1 363.0 240.6 364.4 240.2ZM364.6 248.1C363.5 248.8 361.5 249.3 359.9 249.7C360.2 249.9 360.6 250.3 360.8 250.6C362.4 250.1 364.4 249.4 365.7 248.6ZM368.3 248.8C370.1 249.4 371.8 250.0 372.8 250.5L374.1 250.0C372.9 249.4 371.0 248.7 369.3 248.2ZM381.5 236.5L377.0 236.5L377.0 237.4L381.5 237.4ZM382.1 238.6L376.2 238.6L376.2 239.5L382.1 239.5ZM381.5 240.7L376.9 240.7L376.9 241.7L381.5 241.7ZM376.9 243.8L381.5 243.8L381.5 242.8L376.9 242.8ZM380.5 246.0L380.5 248.6L377.9 248.6L377.9 246.0ZM381.6 249.6L381.6 245.0L376.9 245.0L376.9 250.3L377.9 250.3L377.9 249.6ZM382.3 236.7L382.3 237.8L384.3 237.8L384.3 241.2C384.3 241.5 384.3 241.8 384.3 242.1L382.1 242.1L382.1 243.3L384.2 243.3C384.0 245.5 383.4 247.8 381.5 249.7C381.8 249.9 382.2 250.3 382.4 250.5C384.6 248.4 385.2 245.8 385.4 243.3L387.5 243.3L387.5 242.1L385.4 242.1C385.4 241.8 385.4 241.5 385.4 241.2L385.4 237.8L388.0 237.8C388.0 244.7 387.9 249.9 389.7 250.4C390.5 250.8 391.1 250.2 391.2 247.6C391.0 247.4 390.7 247.0 390.5 246.7C390.4 248.1 390.3 249.2 390.2 249.2C389.1 249.0 389.1 243.5 389.2 236.7ZM397.3 247.1C396.4 248.0 394.4 249.1 392.9 249.7C393.2 249.9 393.6 250.3 393.8 250.5C395.3 249.9 397.2 248.8 398.4 247.8ZM401.5 247.9C403.2 248.7 405.0 249.8 406.1 250.6L407.2 249.7C406.0 249.0 404.1 247.9 402.3 247.1ZM405.6 245.7C405.7 243.4 405.8 239.7 405.9 236.9L402.4 236.9L402.4 238.0L404.8 238.0C404.8 238.6 404.7 239.2 404.7 239.8L402.6 239.8L402.6 240.8L404.7 240.8C404.7 241.5 404.7 242.2 404.6 242.8L402.6 242.8L402.6 243.8L404.6 243.8C404.6 244.5 404.5 245.2 404.5 245.7L401.8 245.7L401.8 240.4L399.3 240.4L399.3 238.7L402.1 238.7L402.1 237.7L399.3 237.7L399.3 236.0L398.3 236.0L398.3 241.3L400.8 241.3L400.8 245.7L399.2 245.7L399.2 242.0L398.3 242.0L398.3 245.7L395.5 245.7L395.4 243.8L397.5 243.8L397.5 242.8L395.4 242.8L395.3 240.8L397.5 240.8L397.5 239.8L395.3 239.8L395.2 238.1C396.1 237.8 397.1 237.3 398.0 236.9L397.0 236.1C396.5 236.4 395.7 236.9 394.9 237.3L394.1 237.0L394.4 245.7L392.8 245.7L392.8 246.8L407.3 246.8L407.3 245.7ZM419.0 237.8L419.0 236.8L413.3 236.8L413.3 237.8L415.0 237.8C414.7 238.9 414.3 240.2 413.9 241.1C413.6 241.1 413.2 241.1 412.9 241.1L413.0 242.2C414.4 242.1 416.2 241.9 418.0 241.8C418.1 242.1 418.2 242.4 418.3 242.7L419.2 242.3C419.0 241.4 418.3 240.0 417.6 238.9L416.8 239.3C417.0 239.7 417.3 240.3 417.6 240.8C416.7 240.9 415.8 241.0 415.0 241.0C415.4 240.1 415.8 238.9 416.2 237.8ZM412.3 236.0C411.5 238.4 410.2 240.9 408.9 242.4C409.0 242.7 409.4 243.4 409.5 243.6C410.0 243.0 410.5 242.3 411.0 241.5L411.0 250.5L412.1 250.5L412.1 239.5C412.6 238.4 413.0 237.4 413.4 236.3ZM416.6 248.1L416.6 245.4L418.8 245.4L418.8 244.3L416.6 244.3L416.6 242.4L415.5 242.4L415.5 244.3L413.2 244.3L413.2 245.4L415.5 245.4L415.5 248.3C414.5 248.4 413.5 248.6 412.8 248.7L412.9 249.8C414.7 249.5 417.0 249.1 419.2 248.7L419.2 247.7ZM420.5 238.0L419.4 238.0L419.4 246.7L420.5 246.7ZM422.2 236.2L422.2 249.1C422.2 249.3 422.1 249.4 421.9 249.4C421.7 249.4 421.0 249.4 420.2 249.4C420.4 249.7 420.6 250.2 420.6 250.5C421.6 250.5 422.3 250.5 422.7 250.3C423.1 250.1 423.3 249.8 423.3 249.1L423.3 236.2ZM431.4 236.5L426.5 236.5L426.5 237.4L431.4 237.4ZM432.0 238.6L425.7 238.6L425.7 239.5L432.0 239.5ZM430.3 246.0L430.3 248.6L427.5 248.6L427.5 246.0ZM431.3 245.0L426.4 245.0L426.4 250.3L427.5 250.3L427.5 249.6L431.3 249.6ZM426.4 243.8L431.4 243.8L431.4 242.8L426.4 242.8ZM426.4 241.7L431.4 241.7L431.4 240.7L426.4 240.7ZM440.5 241.3L436.9 241.3L436.9 236.0L435.7 236.0L435.7 241.3L432.0 241.3L432.0 242.5L435.7 242.5L435.7 250.5L436.9 250.5L436.9 242.5L440.5 242.5ZM446.2 238.0L446.2 241.6L443.9 241.6L443.9 238.0ZM443.9 246.3L443.9 242.6L446.2 242.6L446.2 246.3ZM447.3 237.0L442.8 237.0L442.8 248.7L443.9 248.7L443.9 247.4L447.3 247.4ZM448.6 245.9C449.4 246.8 450.3 248.0 450.7 248.7L451.7 248.1C451.3 247.3 450.4 246.2 449.6 245.4ZM456.9 242.0L456.9 240.9L452.7 240.9L452.7 238.9L456.2 238.9L456.2 237.8L452.7 237.8L452.7 235.9L451.6 235.9L451.6 237.8L448.3 237.8L448.3 238.9L451.6 238.9L451.6 240.9L447.6 240.9L447.6 242.0L453.7 242.0L453.7 243.8L447.6 243.8L447.6 244.8L453.7 244.8L453.7 249.1C453.7 249.3 453.6 249.4 453.3 249.4C453.1 249.4 452.2 249.4 451.2 249.4C451.4 249.7 451.5 250.2 451.6 250.5C452.9 250.5 453.7 250.5 454.2 250.3C454.7 250.1 454.8 249.8 454.8 249.1L454.8 244.8L456.7 244.8L456.7 243.8L454.8 243.8L454.8 242.0ZM460.4 239.4L462.1 239.4L462.1 240.8L460.4 240.8ZM464.9 239.4L464.9 240.8L463.2 240.8L463.2 239.4ZM471.0 238.7C470.7 239.6 470.3 240.4 469.7 241.1C469.1 240.3 468.6 239.5 468.2 238.7L468.3 238.7ZM462.1 244.3L463.2 244.3L463.2 242.4C463.9 242.8 465.0 243.4 465.4 243.7L466.0 242.9C465.6 242.7 463.9 241.8 463.3 241.5L465.9 241.5L465.9 240.0C466.2 240.2 466.5 240.6 466.7 240.8C467.0 240.4 467.3 240.1 467.6 239.6C468.0 240.4 468.4 241.1 469.0 241.8C468.1 242.5 467.1 243.1 465.8 243.5C466 243.7 466.4 244.1 466.5 244.3C467.7 243.9 468.8 243.3 469.7 242.5C470.5 243.3 471.5 244.0 472.8 244.4C472.9 244.1 473.2 243.7 473.4 243.5C472.2 243.1 471.2 242.5 470.4 241.8C471.2 241.0 471.8 239.9 472.1 238.7L473.2 238.7L473.2 237.7L468.8 237.7C469.0 237.2 469.2 236.7 469.3 236.2L468.3 235.9C467.8 237.5 467.0 238.9 465.9 239.9L465.9 238.6L463.2 238.6L463.2 237.8L466.3 237.8L466.3 236.9L463.2 236.9L463.2 235.9L462.1 235.9L462.1 236.9L459.0 236.9L459.0 237.8L462.1 237.8L462.1 238.6L459.4 238.6L459.4 241.5L461.6 241.5C460.8 242.3 459.7 243.1 458.7 243.5C458.9 243.7 459.2 244.1 459.4 244.3C460.3 243.9 461.3 243.1 462.1 242.2ZM466.6 247.9L471.2 247.9L471.2 246.9L466.6 246.9L466.6 245.7L472.2 245.7L472.2 244.7L459.9 244.7L459.9 245.7L465.4 245.7L465.4 249.2L462.6 249.2L462.6 246.4L461.4 246.4L461.4 249.2L458.8 249.2L458.8 250.2L473.2 250.2L473.2 249.2L466.6 249.2ZM480.1 246.1L478.4 246.7L478.4 242.7L480.0 242.7L480.0 241.6L478.4 241.6L478.4 238.1L480.2 238.1L480.2 237.0L475.3 237.0L475.3 238.1L477.3 238.1L477.3 241.6L475.5 241.6L475.5 242.7L477.3 242.7L477.3 247.0C476.5 247.3 475.7 247.5 475.1 247.7L475.4 248.9C476.8 248.4 478.6 247.8 480.4 247.2ZM482.1 240.7L484.5 240.7L484.5 242.7L482.1 242.7ZM482.1 237.7L484.5 237.7L484.5 239.7L482.1 239.7ZM488.0 239.7L485.6 239.7L485.6 237.7L488.0 237.7ZM488.0 242.7L485.6 242.7L485.6 240.7L488.0 240.7ZM485.7 248.9L485.7 246.7L489.4 246.7L489.4 245.6L485.7 245.6L485.7 243.8L489.2 243.8L489.2 236.6L481.0 236.6L481.0 243.8L484.5 243.8L484.5 245.6L480.8 245.6L480.8 246.7L484.5 246.7L484.5 248.9L479.6 248.9L479.6 250.0L489.9 250.0L489.9 248.9ZM494.1 245.4C492.8 245.4 491.7 246.5 491.7 247.8C491.7 249.2 492.8 250.3 494.1 250.3C495.5 250.3 496.6 249.2 496.6 247.8C496.6 246.5 495.5 245.4 494.1 245.4ZM494.1 249.5C493.2 249.5 492.5 248.7 492.5 247.8C492.5 246.9 493.2 246.2 494.1 246.2C495.0 246.2 495.7 246.9 495.7 247.8C495.7 248.7 495.0 249.5 494.1 249.5Z "/><rect x="357" y="365" width="86" height="15" fill="#F9F9F9"/><path fill="#CCCCCC" d="M363.4 376.2L357.9 376.2L357.9 375.5L360.8 372.3Q361.3 371.8 361.6 371.3Q361.9 370.9 362.1 370.6Q362.3 370.2 362.3 369.8L362.3 369.8Q362.3 369.3 362.0 369.0Q361.8 368.7 361.4 368.5Q361.1 368.3 360.6 368.3L360.6 368.3Q360.1 368.3 359.7 368.5Q359.3 368.7 359.1 369.1Q358.9 369.5 358.9 370.0L358.9 370.0L357.9 370.0Q357.9 369.2 358.3 368.6Q358.6 368.0 359.3 367.7Q359.9 367.4 360.6 367.4L360.6 367.4Q361.4 367.4 362.0 367.7Q362.6 368.0 362.9 368.6Q363.3 369.1 363.3 369.8L363.3 369.8Q363.3 370.3 363.1 370.7Q362.9 371.2 362.5 371.8Q362.1 372.3 361.3 373.1L361.3 373.1L359.4 375.2L359.4 375.3L363.4 375.3L363.4 376.2ZM368.0 376.4L368.0 376.4Q367.0 376.4 366.4 375.8Q365.7 375.3 365.3 374.3Q365.0 373.3 365.0 371.9L365.0 371.9Q365.0 370.5 365.3 369.5Q365.7 368.4 366.4 367.9Q367.1 367.4 368.0 367.4L368.0 367.4Q369.0 367.4 369.6 367.9Q370.3 368.4 370.7 369.5Q371.0 370.5 371.0 371.9L371.0 371.9Q371.0 373.3 370.7 374.3Q370.3 375.3 369.7 375.8Q369.0 376.4 368.0 376.4ZM368.0 375.4L368.0 375.4Q369.0 375.4 369.5 374.5Q370.0 373.6 370.0 371.9L370.0 371.9Q370.0 370.7 369.8 369.9Q369.5 369.1 369.1 368.7Q368.6 368.3 368.0 368.3L368.0 368.3Q367.1 368.3 366.5 369.2Q366 370.2 366 371.9L366 371.9Q366 373.0 366.2 373.8Q366.5 374.6 366.9 375.0Q367.4 375.4 368.0 375.4ZM378.2 376.2L372.7 376.2L372.7 375.5L375.5 372.3Q376.1 371.8 376.4 371.3Q376.7 370.9 376.9 370.6Q377.0 370.2 377.0 369.8L377.0 369.8Q377.0 369.3 376.8 369.0Q376.6 368.7 376.2 368.5Q375.8 368.3 375.4 368.3L375.4 368.3Q374.9 368.3 374.5 368.5Q374.1 368.7 373.9 369.1Q373.7 369.5 373.7 370.0L373.7 370.0L372.7 370.0Q372.7 369.2 373.1 368.6Q373.4 368.0 374.0 367.7Q374.6 367.4 375.4 367.4L375.4 367.4Q376.2 367.4 376.8 367.7Q377.3 368.0 377.7 368.6Q378.0 369.1 378.0 369.8L378.0 369.8Q378.0 370.3 377.8 370.7Q377.7 371.2 377.2 371.8Q376.8 372.3 376.1 373.1L376.1 373.1L374.1 375.2L374.1 375.3L378.2 375.3L378.2 376.2ZM382.9 376.4L382.9 376.4Q382.0 376.4 381.4 376.1Q380.7 375.8 380.3 375.3Q379.9 374.7 379.9 374.1L379.9 374.1L381.0 374.1Q381.0 374.5 381.3 374.8Q381.5 375.1 381.9 375.2Q382.4 375.4 382.9 375.4L382.9 375.4Q383.4 375.4 383.9 375.2Q384.3 375.0 384.5 374.7Q384.8 374.3 384.8 373.9L384.8 373.9Q384.8 373.4 384.5 373.0Q384.3 372.6 383.8 372.4Q383.4 372.2 382.7 372.2L382.7 372.2L382.0 372.2L382.0 371.3L382.7 371.3Q383.2 371.3 383.6 371.1Q384.0 370.9 384.3 370.6Q384.5 370.2 384.5 369.8L384.5 369.8Q384.5 369.3 384.3 369.0Q384.1 368.7 383.7 368.5Q383.4 368.3 382.9 368.3L382.9 368.3Q382.4 368.3 382.0 368.5Q381.6 368.6 381.4 368.9Q381.1 369.3 381.1 369.7L381.1 369.7L380.1 369.7Q380.1 369.0 380.5 368.5Q380.9 368.0 381.5 367.7Q382.2 367.4 382.9 367.4L382.9 367.4Q383.7 367.4 384.3 367.7Q384.9 368.0 385.2 368.6Q385.5 369.1 385.5 369.7L385.5 369.7Q385.5 370.5 385.1 371.0Q384.7 371.5 384.1 371.7L384.1 371.7L384.1 371.8Q384.9 371.9 385.4 372.5Q385.8 373.0 385.8 373.9L385.8 373.9Q385.8 374.6 385.4 375.1Q385.1 375.7 384.4 376.0Q383.7 376.4 382.9 376.4Z M394.2 376.2L391.1 376.2L391.1 367.5L394.1 367.5Q395.1 367.5 395.6 367.8Q396.2 368.1 396.5 368.7Q396.8 369.2 396.8 369.8L396.8 369.8Q396.8 370.4 396.6 370.8Q396.4 371.1 396.1 371.3Q395.8 371.5 395.4 371.6L395.4 371.6L395.4 371.7Q395.8 371.8 396.2 372.0Q396.6 372.3 396.9 372.7Q397.2 373.2 397.2 373.9L397.2 373.9Q397.2 374.6 396.9 375.1Q396.6 375.6 395.9 375.9Q395.3 376.2 394.2 376.2L394.2 376.2ZM392.1 372.3L392.1 375.3L394.2 375.3Q395.3 375.3 395.7 374.9Q396.2 374.5 396.2 373.9L396.2 373.9Q396.2 373.5 395.9 373.1Q395.7 372.7 395.3 372.5Q394.9 372.3 394.3 372.3L394.3 372.3L392.1 372.3ZM392.1 368.4L392.1 371.3L394.1 371.3Q394.6 371.3 395.0 371.2Q395.4 371.0 395.6 370.6Q395.8 370.3 395.8 369.8L395.8 369.8Q395.8 369.2 395.4 368.8Q395.0 368.4 394.1 368.4L394.1 368.4L392.1 368.4ZM401.4 376.4L401.4 376.4Q400.5 376.4 399.9 375.9Q399.2 375.5 398.8 374.8Q398.5 374.0 398.5 373.0L398.5 373.0Q398.5 372.0 398.8 371.2Q399.2 370.4 399.9 370.0Q400.5 369.6 401.4 369.6L401.4 369.6Q402.3 369.6 403.0 370.0Q403.6 370.4 404.0 371.2Q404.4 372.0 404.4 373.0L404.4 373.0Q404.4 374.0 404.0 374.8Q403.6 375.5 403.0 375.9Q402.3 376.4 401.4 376.4ZM401.4 375.5L401.4 375.5Q402.1 375.5 402.5 375.1Q403.0 374.8 403.2 374.2Q403.4 373.6 403.4 373.0L403.4 373.0Q403.4 372.3 403.2 371.8Q403.0 371.2 402.5 370.9Q402.1 370.5 401.4 370.5L401.4 370.5Q400.7 370.5 400.3 370.9Q399.9 371.2 399.7 371.8Q399.5 372.3 399.5 373.0L399.5 373.0Q399.5 373.6 399.7 374.2Q399.9 374.8 400.3 375.1Q400.7 375.5 401.4 375.5ZM407.0 376.2L406.1 376.2L406.1 367.5L407.1 367.5L407.1 370.7L407.1 370.7Q407.3 370.6 407.5 370.3Q407.7 370.0 408.0 369.8Q408.4 369.6 409.0 369.6L409.0 369.6Q409.9 369.6 410.5 370.0Q411.1 370.4 411.5 371.2Q411.8 371.9 411.8 373.0L411.8 373.0Q411.8 374.0 411.5 374.8Q411.1 375.5 410.5 376.0Q409.9 376.4 409.1 376.4L409.1 376.4Q408.4 376.4 408.0 376.2Q407.7 375.9 407.5 375.7Q407.3 375.4 407.1 375.2L407.1 375.2L407.0 375.2L407.0 376.2ZM407.0 373.0L407.0 373.0Q407.0 373.7 407.3 374.3Q407.5 374.8 407.9 375.1Q408.3 375.5 408.9 375.5L408.9 375.5Q409.6 375.5 410.0 375.1Q410.4 374.8 410.6 374.2Q410.8 373.7 410.8 373.0L410.8 373.0Q410.8 372.3 410.6 371.7Q410.4 371.2 410.0 370.8Q409.6 370.5 408.9 370.5L408.9 370.5Q408.3 370.5 407.9 370.8Q407.5 371.1 407.3 371.7Q407.0 372.2 407.0 373.0ZM414.9 372.6L411.7 367.5L412.9 367.5L415.4 371.6L415.5 371.6L417.9 367.5L419.1 367.5L415.9 372.6L415.9 376.2L414.9 376.2L414.9 372.6ZM421.4 376.4L421.4 376.4Q420.8 376.4 420.3 376.1Q419.8 375.9 419.5 375.5Q419.2 375.0 419.2 374.4L419.2 374.4Q419.2 373.8 419.4 373.5Q419.6 373.1 420.0 372.9Q420.3 372.7 420.8 372.6Q421.2 372.5 421.7 372.4L421.7 372.4Q422.3 372.4 422.7 372.3Q423.0 372.3 423.2 372.2Q423.4 372.1 423.4 371.9L423.4 371.9L423.4 371.8Q423.4 371.2 423.0 370.8Q422.7 370.5 422.0 370.5L422.0 370.5Q421.3 370.5 420.9 370.8Q420.5 371.1 420.3 371.5L420.3 371.5L419.4 371.1Q419.6 370.5 420.0 370.2Q420.5 369.9 421.0 369.7Q421.5 369.6 422.0 369.6L422.0 369.6Q422.3 369.6 422.7 369.7Q423.1 369.8 423.5 370.0Q423.9 370.2 424.1 370.7Q424.4 371.1 424.4 371.9L424.4 371.9L424.4 376.2L423.4 376.2L423.4 375.3L423.3 375.3Q423.2 375.6 423.0 375.8Q422.8 376.0 422.4 376.2Q422.0 376.4 421.4 376.4ZM421.6 375.5L421.6 375.5Q422.1 375.5 422.6 375.2Q423.0 375.0 423.2 374.6Q423.4 374.3 423.4 373.9L423.4 373.9L423.4 372.9Q423.3 373.0 423.1 373.1Q422.9 373.1 422.6 373.2Q422.3 373.2 422.1 373.3Q421.8 373.3 421.7 373.3L421.7 373.3Q421.3 373.4 420.9 373.5Q420.6 373.6 420.4 373.8Q420.2 374.0 420.2 374.4L420.2 374.4Q420.2 374.9 420.6 375.2Q421.0 375.5 421.6 375.5ZM427.2 372.3L427.2 372.3L427.2 376.2L426.2 376.2L426.2 369.7L427.2 369.7L427.2 370.7L427.3 370.7Q427.5 370.2 428.0 369.9Q428.5 369.6 429.2 369.6L429.2 369.6Q429.9 369.6 430.4 369.9Q430.9 370.1 431.1 370.7Q431.4 371.2 431.4 372.1L431.4 372.1L431.4 376.2L430.4 376.2L430.4 372.1Q430.4 371.4 430.0 370.9Q429.6 370.5 428.9 370.5L428.9 370.5Q428.4 370.5 428.1 370.7Q427.7 370.9 427.5 371.3Q427.2 371.7 427.2 372.3ZM435.9 378.8L435.9 378.8Q435.2 378.8 434.7 378.6Q434.1 378.5 433.8 378.2Q433.4 377.9 433.2 377.5L433.2 377.5L434.0 376.9Q434.2 377.1 434.4 377.4Q434.6 377.6 434.9 377.8Q435.3 377.9 435.9 377.9L435.9 377.9Q436.7 377.9 437.2 377.6Q437.7 377.2 437.7 376.4L437.7 376.4L437.7 375.0L437.6 375.0Q437.5 375.2 437.3 375.5Q437.1 375.7 436.7 375.9Q436.4 376.1 435.7 376.1L435.7 376.1Q434.9 376.1 434.3 375.8Q433.7 375.4 433.3 374.7Q433.0 373.9 433.0 372.9L433.0 372.9Q433.0 371.9 433.3 371.2Q433.7 370.4 434.3 370.0Q434.9 369.6 435.8 369.6L435.8 369.6Q436.4 369.6 436.8 369.8Q437.1 370.0 437.3 370.3Q437.5 370.6 437.7 370.7L437.7 370.7L437.8 370.7L437.8 369.7L438.7 369.7L438.7 376.4Q438.7 377.3 438.4 377.8Q438.0 378.3 437.3 378.6Q436.7 378.8 435.9 378.8ZM435.9 375.2L435.9 375.2Q436.5 375.2 436.9 374.9Q437.3 374.7 437.5 374.2Q437.7 373.6 437.7 372.9L437.7 372.9Q437.7 372.2 437.5 371.7Q437.3 371.1 436.9 370.8Q436.5 370.5 435.9 370.5L435.9 370.5Q435.2 370.5 434.8 370.8Q434.4 371.2 434.2 371.7Q434.0 372.2 434.0 372.9L434.0 372.9Q434.0 373.6 434.2 374.1Q434.4 374.6 434.8 374.9Q435.2 375.2 435.9 375.2ZM441.3 376.3L441.3 376.3Q441.0 376.3 440.8 376.1Q440.5 375.8 440.5 375.5L440.5 375.5Q440.5 375.2 440.8 375.0Q441.0 374.8 441.3 374.8L441.3 374.8Q441.6 374.8 441.8 375.0Q442.1 375.2 442.1 375.5L442.1 375.5Q442.1 375.7 442.0 375.9Q441.9 376.1 441.7 376.2Q441.5 376.3 441.3 376.3Z "/></svg>